<svg width="512" height="512" viewBox="0 0 512 512" xmlns="http://www.w3.org/2000/svg">
  <defs>
    <linearGradient id="bg-gradient" x1="0%" y1="0%" x2="100%" y2="100%">
      <stop offset="0%" style="stop-color:#6366f1;stop-opacity:1" />
      <stop offset="100%" style="stop-color:#4f46e5;stop-opacity:1" />
    </linearGradient>
    <linearGradient id="lock-gradient" x1="0%" y1="0%" x2="100%" y2="100%">
      <stop offset="0%" style="stop-color:#ffffff;stop-opacity:1" />
      <stop offset="100%" style="stop-color:#f1f5f9;stop-opacity:1" />
    </linearGradient>
  </defs>
  
  <!-- Background -->
  <rect width="512" height="512" rx="80" ry="80" fill="url(#bg-gradient)"/>
  
  <!-- Lock Body -->
  <rect x="156" y="220" width="200" height="160" rx="20" ry="20" fill="url(#lock-gradient)" stroke="#e2e8f0" stroke-width="4"/>
  
  <!-- Lock Shackle -->
  <path d="M 196 220 L 196 180 Q 196 140 236 140 L 276 140 Q 316 140 316 180 L 316 220" 
        fill="none" stroke="url(#lock-gradient)" stroke-width="20" stroke-linecap="round"/>
  
  <!-- Keyhole -->
  <circle cx="256" cy="280" r="20" fill="#6366f1"/>
  <rect x="246" y="290" width="20" height="40" rx="10" ry="10" fill="#6366f1"/>
  
  <!-- Emoji Sparkles -->
  <g fill="#fbbf24" opacity="0.8">
    <!-- Top left sparkle -->
    <circle cx="120" cy="120" r="8"/>
    <rect x="116" y="105" width="8" height="30" rx="4"/>
    <rect x="105" y="116" width="30" height="8" rx="4"/>
    
    <!-- Top right sparkle -->
    <circle cx="392" cy="120" r="6"/>
    <rect x="389" y="108" width="6" height="24" rx="3"/>
    <rect x="380" y="117" width="24" height="6" rx="3"/>
    
    <!-- Bottom left sparkle -->
    <circle cx="120" cy="392" r="6"/>
    <rect x="117" y="380" width="6" height="24" rx="3"/>
    <rect x="108" y="389" width="24" height="6" rx="3"/>
    
    <!-- Bottom right sparkle -->
    <circle cx="392" cy="392" r="8"/>
    <rect x="388" y="377" width="8" height="30" rx="4"/>
    <rect x="377" y="388" width="30" height="8" rx="4"/>
  </g>
  
  <!-- Subtle glow effect -->
  <rect width="512" height="512" rx="80" ry="80" fill="none" stroke="rgba(255,255,255,0.2)" stroke-width="2"/>
</svg>